<svg width="22" height="22" viewBox="0 0 22 22" fill="none" xmlns="http://www.w3.org/2000/svg">
<path d="M4.58333 9.16667C2.05203 9.16667 0 7.11464 0 4.58333V4.58333C0 2.05203 2.05203 0 4.58333 0V0C7.11464 0 9.16667 2.05203 9.16667 4.58333V4.58333C9.16667 7.11464 7.11464 9.16667 4.58333 9.16667V9.16667ZM4.58333 22C2.05203 22 0 19.948 0 17.4167V17.4167C0 14.8854 2.05203 12.8333 4.58333 12.8333V12.8333C7.11464 12.8333 9.16667 14.8854 9.16667 17.4167V17.4167C9.16667 19.948 7.11464 22 4.58333 22V22ZM17.4167 9.16667C14.8854 9.16667 12.8333 7.11464 12.8333 4.58333V4.58333C12.8333 2.05203 14.8854 0 17.4167 0V0C19.948 0 22 2.05203 22 4.58333V4.58333C22 7.11464 19.948 9.16667 17.4167 9.16667V9.16667ZM17.4167 22C14.8854 22 12.8333 19.948 12.8333 17.4167V17.4167C12.8333 14.8854 14.8854 12.8333 17.4167 12.8333V12.8333C19.948 12.8333 22 14.8854 22 17.4167V17.4167C22 19.948 19.948 22 17.4167 22V22Z" fill="#4F8EFF"/>
</svg>
