<svg width="102" height="20" viewBox="0 0 102 20" fill="none" xmlns="http://www.w3.org/2000/svg">
<path d="M6.21754 13L5.71754 11.58H2.80754L2.30754 13H1.11754L3.60754 6.04H4.92754L7.41754 13H6.21754ZM5.39754 10.65L4.26754 7.42L3.12754 10.65H5.39754ZM9.88508 10.1V13H8.74508V7.49H9.88508V8.29C10.2051 7.74 10.7551 7.4 11.5351 7.4V8.58H11.2451C10.4051 8.58 9.88508 8.93 9.88508 10.1ZM12.4479 10.22C12.4479 8.52 13.5979 7.4 15.0479 7.4C15.9779 7.4 16.6179 7.84 16.9579 8.29V7.49H18.1079V13H16.9579V12.18C16.6079 12.65 15.9479 13.09 15.0279 13.09C13.5979 13.09 12.4479 11.92 12.4479 10.22ZM16.9579 10.24C16.9579 9.06 16.1479 8.39 15.2879 8.39C14.4379 8.39 13.6179 9.03 13.6179 10.22C13.6179 11.41 14.4379 12.1 15.2879 12.1C16.1479 12.1 16.9579 11.43 16.9579 10.24ZM20.9901 8.31C21.3501 7.81 22.0401 7.4 22.9101 7.4C24.3701 7.4 25.5001 8.52 25.5001 10.22C25.5001 11.92 24.3601 13.09 22.9101 13.09C22.0001 13.09 21.3501 12.68 20.9901 12.2V13H19.8501V5.6H20.9901V8.31ZM24.3401 10.22C24.3401 9.03 23.5201 8.39 22.6601 8.39C21.8101 8.39 20.9901 9.06 20.9901 10.24C20.9901 11.43 21.8101 12.1 22.6601 12.1C23.5201 12.1 24.3401 11.41 24.3401 10.22ZM26.8723 13V7.49H28.0123V13H26.8723ZM27.4523 6.76C27.0423 6.76 26.7223 6.44 26.7223 6.03C26.7223 5.62 27.0423 5.3 27.4523 5.3C27.8523 5.3 28.1723 5.62 28.1723 6.03C28.1723 6.44 27.8523 6.76 27.4523 6.76ZM29.3739 10.24C29.3739 8.52 30.4939 7.4 32.0739 7.4C33.4239 7.4 34.3039 8.07 34.6139 9.23H33.3839C33.1939 8.7 32.7539 8.36 32.0739 8.36C31.1539 8.36 30.5439 9.04 30.5439 10.24C30.5439 11.45 31.1539 12.13 32.0739 12.13C32.7539 12.13 33.1739 11.83 33.3839 11.26H34.6139C34.3039 12.34 33.4239 13.09 32.0739 13.09C30.4939 13.09 29.3739 11.97 29.3739 10.24Z" fill="white"/>
<path d="M0.777538 14H35.0039V14.5H0.777538V14Z" fill="white"/>
<path d="M68.9328 6.01V7.15H66.2828V8.9H68.6328V10.01H66.2828V11.86H68.9328V13H64.8828V6.01H68.9328ZM74.33 13V9.94C74.33 9.05 73.84 8.57 73.1 8.57C72.34 8.57 71.85 9.05 71.85 9.94V13H70.45V7.46H71.85V8.15C72.21 7.68 72.81 7.38 73.52 7.38C74.81 7.38 75.73 8.22 75.73 9.75V13H74.33ZM76.9462 10.21C76.9462 8.48 78.0662 7.37 79.4762 7.37C80.3462 7.37 80.9762 7.77 81.3062 8.25V7.46H82.7162V13.04C82.7162 14.54 81.7962 15.73 79.9762 15.73C78.4162 15.73 77.3262 14.95 77.1862 13.68H78.5762C78.7162 14.18 79.2362 14.51 79.9362 14.51C80.7062 14.51 81.3062 14.07 81.3062 13.04V12.18C80.9762 12.66 80.3462 13.09 79.4762 13.09C78.0662 13.09 76.9462 11.94 76.9462 10.21ZM81.3062 10.23C81.3062 9.18 80.6062 8.6 79.8362 8.6C79.0862 8.6 78.3762 9.16 78.3762 10.21C78.3762 11.26 79.0862 11.86 79.8362 11.86C80.6062 11.86 81.3062 11.28 81.3062 10.23ZM84.3284 13V5.6H85.7284V13H84.3284ZM87.3565 13V7.46H88.7565V13H87.3565ZM88.0665 6.8C87.5665 6.8 87.2065 6.44 87.2065 5.98C87.2065 5.52 87.5665 5.16 88.0665 5.16C88.5565 5.16 88.9265 5.52 88.9265 5.98C88.9265 6.44 88.5565 6.8 88.0665 6.8ZM94.6846 11.42C94.6846 12.37 93.8546 13.09 92.5046 13.09C91.1146 13.09 90.1446 12.28 90.0846 11.25H91.4946C91.5446 11.67 91.9346 11.99 92.4946 11.99C93.0446 11.99 93.3446 11.74 93.3446 11.42C93.3446 10.43 90.2146 11.06 90.2146 9.03C90.2146 8.11 91.0346 7.37 92.4046 7.37C93.7446 7.37 94.5546 8.1 94.6346 9.2H93.2946C93.2546 8.77 92.9146 8.48 92.3646 8.48C91.8446 8.48 91.5746 8.69 91.5746 9.01C91.5746 10.02 94.6446 9.39 94.6846 11.42ZM96.0787 13V5.6H97.4787V8.15C97.8387 7.68 98.4587 7.38 99.1987 7.38C100.449 7.38 101.359 8.22 101.359 9.75V13H99.9587V9.94C99.9587 9.05 99.4687 8.57 98.7287 8.57C97.9687 8.57 97.4787 9.05 97.4787 9.94V13H96.0787Z" fill="white"/>
<path d="M56.9982 8.00409C56.9982 7.73888 56.8928 7.48452 56.7053 7.29699C56.5178 7.10945 56.2634 7.00409 55.9982 7.00409H44.4082L46.7082 4.71409C46.8965 4.52579 47.0023 4.27039 47.0023 4.00409C47.0023 3.73779 46.8965 3.4824 46.7082 3.29409C46.5199 3.10579 46.2645 3 45.9982 3C45.7319 3 45.4765 3.10579 45.2882 3.29409L41.2882 7.29409C41.1494 7.43472 41.0554 7.61329 41.0181 7.80728C40.9807 8.00127 41.0016 8.20198 41.0782 8.38409C41.1532 8.56671 41.2806 8.72304 41.4443 8.83337C41.608 8.9437 41.8008 9.00311 41.9982 9.00409H55.9982C56.2634 9.00409 56.5178 8.89873 56.7053 8.7112C56.8928 8.52366 56.9982 8.26931 56.9982 8.00409ZM60.9182 11.6241C60.8432 11.4415 60.7158 11.2851 60.552 11.1748C60.3883 11.0645 60.1956 11.0051 59.9982 11.0041H45.9982C45.733 11.0041 45.4786 11.1094 45.2911 11.297C45.1035 11.4845 44.9982 11.7389 44.9982 12.0041C44.9982 12.2693 45.1035 12.5237 45.2911 12.7112C45.4786 12.8987 45.733 13.0041 45.9982 13.0041H57.5882L55.2882 15.2941C55.1945 15.3871 55.1201 15.4977 55.0693 15.6195C55.0185 15.7414 54.9924 15.8721 54.9924 16.0041C54.9924 16.1361 55.0185 16.2668 55.0693 16.3887C55.1201 16.5105 55.1945 16.6211 55.2882 16.7141C55.3812 16.8078 55.4917 16.8822 55.6136 16.933C55.7355 16.9838 55.8662 17.0099 55.9982 17.0099C56.1302 17.0099 56.2609 16.9838 56.3828 16.933C56.5046 16.8822 56.6152 16.8078 56.7082 16.7141L60.7082 12.7141C60.8469 12.5735 60.9409 12.3949 60.9783 12.2009C61.0157 12.0069 60.9948 11.8062 60.9182 11.6241Z" fill="white"/>
</svg>
