<svg width="10" height="16" viewBox="0 0 10 16" fill="none" xmlns="http://www.w3.org/2000/svg">
<path d="M9.6176 15.6478C9.86245 15.4222 10 15.1163 10 14.7974C10 14.4784 9.86245 14.1725 9.6176 13.947L3.15257 7.99274L9.6176 2.03852C9.85551 1.81166 9.98716 1.50781 9.98418 1.19242C9.9812 0.877029 9.84385 0.575333 9.60169 0.352311C9.35954 0.129289 9.03196 0.00278563 8.68951 4.5003e-05C8.34706 -0.00269563 8.01715 0.118547 7.77082 0.33766L0.382398 7.14231C0.137549 7.36788 -3.63951e-07 7.67378 -3.50009e-07 7.99274C-3.36066e-07 8.3117 0.137549 8.6176 0.382398 8.84317L7.77082 15.6478C8.01575 15.8733 8.34789 16 8.69421 16C9.04053 16 9.37268 15.8733 9.6176 15.6478Z" fill="#252525"/>
</svg>
