<svg width="24" height="20" viewBox="0 0 24 20" fill="none" xmlns="http://www.w3.org/2000/svg">
<path d="M20.6895 4.89789V4.48973C20.6884 3.6053 20.4225 2.74089 19.9252 2.00497C19.4278 1.26905 18.7212 0.694398 17.8939 0.353134C17.0667 0.0118706 16.1557 -0.0808054 15.2753 0.086736C14.3948 0.254277 13.5841 0.674572 12.945 1.29488C12.9072 1.33247 12.8773 1.37706 12.857 1.4261C12.8368 1.47514 12.8266 1.52765 12.827 1.58059V10.6335C12.8272 10.7071 12.8476 10.7793 12.886 10.8424C12.9244 10.9055 12.9793 10.9572 13.0451 10.992C13.1108 11.0268 13.1848 11.0435 13.2594 11.0402C13.3339 11.0369 13.4061 11.0138 13.4685 10.9733C14.2554 10.4756 15.1696 10.2088 16.1044 10.2039C16.3208 10.2 16.5306 10.2779 16.6905 10.4218C16.8504 10.5657 16.9483 10.7645 16.9641 10.9774C16.97 11.0881 16.953 11.1989 16.9141 11.303C16.8751 11.407 16.8151 11.5021 16.7376 11.5825C16.6602 11.6629 16.567 11.7269 16.4636 11.7706C16.3602 11.8143 16.249 11.8367 16.1365 11.8366C15.2585 11.8366 14.4165 12.1806 13.7956 12.7929C13.1748 13.4053 12.826 14.2358 12.826 15.1018V18.5589C12.8259 18.62 12.8397 18.6803 12.8664 18.7354C12.8931 18.7905 12.932 18.839 12.9802 18.8773C13.5675 19.3567 14.2589 19.696 15.0008 19.8689C15.7427 20.0419 16.515 20.0437 17.2578 19.8743C18.0005 19.7049 18.6936 19.3688 19.2832 18.8922C19.8729 18.4156 20.3431 17.8113 20.6574 17.1263C20.6891 17.0574 20.7007 16.9812 20.691 16.9062C20.6812 16.8311 20.6506 16.7603 20.6024 16.7014C20.5542 16.6426 20.4904 16.5981 20.4181 16.5729C20.3458 16.5478 20.2678 16.5429 20.1929 16.5589C19.6771 16.6755 19.1496 16.7344 18.6204 16.7344H17.8207C17.6072 16.737 17.4006 16.6599 17.2423 16.5186C17.084 16.3772 16.9858 16.182 16.9672 15.9722C16.9597 15.8606 16.9756 15.7486 17.0138 15.6432C17.052 15.5378 17.1118 15.4413 17.1894 15.3597C17.267 15.2781 17.3608 15.2131 17.465 15.1687C17.5691 15.1243 17.6814 15.1016 17.7949 15.1018H18.6225C19.4872 15.1031 20.3392 14.8972 21.1054 14.5018C22.0127 14.0357 22.7664 13.3242 23.2783 12.4505C23.7901 11.5769 24.0388 10.5774 23.9951 9.56936C23.9514 8.56128 23.6173 7.58637 23.0318 6.75896C22.4463 5.93156 21.6338 5.28596 20.6895 4.89789ZM19.448 8.5713H19.0342C18.0465 8.5713 17.0992 8.18428 16.4007 7.49538C15.7023 6.80649 15.3099 5.87214 15.3099 4.89789V4.48973C15.3099 4.27323 15.3971 4.0656 15.5523 3.91251C15.7075 3.75942 15.918 3.67342 16.1375 3.67342C16.357 3.67342 16.5676 3.75942 16.7228 3.91251C16.878 4.0656 16.9652 4.27323 16.9652 4.48973V4.89789C16.9652 5.16589 17.0187 5.43126 17.1227 5.67886C17.2267 5.92646 17.3791 6.15144 17.5712 6.34094C17.9592 6.72366 18.4855 6.93867 19.0342 6.93867H19.448C19.6675 6.93867 19.8781 7.02468 20.0333 7.17777C20.1885 7.33086 20.2757 7.53849 20.2757 7.75499C20.2757 7.97149 20.1885 8.17912 20.0333 8.33221C19.8781 8.4853 19.6675 8.5713 19.448 8.5713ZM7.8613 3.60794e-07C6.65447 0.00135071 5.49747 0.474808 4.64411 1.3165C3.79075 2.1582 3.31074 3.29939 3.30937 4.48973V4.89789C2.36518 5.28617 1.55281 5.93194 0.967522 6.75945C0.382232 7.58697 0.0482885 8.56194 0.0048528 9.57001C-0.0385829 10.5781 0.21029 11.5775 0.722286 12.451C1.23428 13.3245 1.98817 14.0359 2.89556 14.5018C3.6617 14.8972 4.51375 15.1031 5.37843 15.1018H6.17812C6.39199 15.0987 6.59913 15.1756 6.75786 15.317C6.91659 15.4584 7.01514 15.6539 7.03368 15.8641C7.04119 15.9757 7.02535 16.0877 6.98714 16.1931C6.94893 16.2984 6.88916 16.3949 6.81154 16.4766C6.73393 16.5582 6.64013 16.6232 6.53597 16.6676C6.43181 16.7119 6.31951 16.7347 6.20605 16.7344H5.37843C4.84883 16.7347 4.32093 16.6754 3.80491 16.5579C3.73002 16.5418 3.65207 16.5465 3.57974 16.5716C3.50741 16.5966 3.44355 16.6409 3.39528 16.6996C3.34701 16.7584 3.31622 16.8292 3.30635 16.9041C3.29648 16.9791 3.30791 17.0553 3.33937 17.1242C3.65359 17.8095 4.12379 18.414 4.71341 18.8908C5.30304 19.3676 5.9962 19.7039 6.73902 19.8735C7.48185 20.0431 8.25432 20.0414 8.99639 19.8686C9.73846 19.6958 10.4301 19.3566 11.0177 18.8773C11.0659 18.839 11.1047 18.7905 11.1314 18.7354C11.1581 18.6803 11.1719 18.62 11.1718 18.5589V15.1018C11.1718 14.2358 10.823 13.4053 10.2022 12.7929C9.58134 12.1806 8.7393 11.8366 7.8613 11.8366C7.74886 11.8367 7.63757 11.8143 7.53422 11.7706C7.43086 11.7269 7.33762 11.6629 7.26017 11.5825C7.18272 11.5021 7.12269 11.407 7.08375 11.303C7.04481 11.1989 7.02777 11.0881 7.03368 10.9774C7.04952 10.7643 7.14761 10.5653 7.30774 10.4214C7.46786 10.2775 7.67783 10.1997 7.89441 10.2039C8.82924 10.2088 9.74342 10.4756 10.5304 10.9733C10.5927 11.0138 10.6649 11.0369 10.7395 11.0402C10.814 11.0435 10.8881 11.0268 10.9538 10.992C11.0195 10.9572 11.0745 10.9055 11.1129 10.8424C11.1512 10.7793 11.1716 10.7071 11.1718 10.6335V1.58059C11.1722 1.47345 11.1298 1.37046 11.0539 1.29386C10.2041 0.464508 9.05676 -0.000472823 7.8613 3.60794e-07ZM8.68893 4.89789C8.68893 5.87214 8.29655 6.80649 7.5981 7.49538C6.89966 8.18428 5.95237 8.5713 4.96462 8.5713H4.5508C4.33131 8.5713 4.1208 8.4853 3.96559 8.33221C3.81038 8.17912 3.72318 7.97149 3.72318 7.75499C3.72318 7.53849 3.81038 7.33086 3.96559 7.17777C4.1208 7.02468 4.33131 6.93867 4.5508 6.93867H4.96462C5.23633 6.93867 5.50538 6.88589 5.75641 6.78333C6.00744 6.68077 6.23553 6.53045 6.42766 6.34094C6.61979 6.15144 6.7722 5.92646 6.87618 5.67886C6.98016 5.43126 7.03368 5.16589 7.03368 4.89789V4.48973C7.03368 4.27323 7.12087 4.0656 7.27608 3.91251C7.43129 3.75942 7.6418 3.67342 7.8613 3.67342C8.0808 3.67342 8.29131 3.75942 8.44652 3.91251C8.60173 4.0656 8.68893 4.27323 8.68893 4.48973V4.89789Z" fill="#4F8EFF"/>
</svg>
