<svg width="21" height="19" viewBox="0 0 21 19" fill="none" xmlns="http://www.w3.org/2000/svg">
<path d="M0.631592 1.91115C0.633384 1.65391 0.736304 1.40769 0.918118 1.22569C1.09993 1.0437 1.34604 0.940528 1.60329 0.938477H19.2505C19.7873 0.938477 20.2222 1.37437 20.2222 1.91115V17.5974C20.2204 17.8546 20.1175 18.1008 19.9357 18.2828C19.7539 18.4648 19.5078 18.568 19.2505 18.5701H1.60329C1.34549 18.5698 1.09834 18.4672 0.916136 18.2848C0.733935 18.1024 0.631592 17.8552 0.631592 17.5974V1.91115ZM2.59066 2.89754V16.611H18.2632V2.89754H2.59066ZM4.54972 4.85661H10.4269V10.7338H4.54972V4.85661ZM6.50878 6.81567V8.77473H8.46785V6.81567H6.50878ZM4.54972 12.6929H16.3041V14.6519H4.54972V12.6929ZM12.386 4.85661H16.3041V6.81567H12.386V4.85661ZM12.386 8.77473H16.3041V10.7338H12.386V8.77473Z" fill="white"/>
</svg>
