<svg width="105" height="20" viewBox="0 0 105 20" fill="none" xmlns="http://www.w3.org/2000/svg">
<path d="M4.93281 6.01V7.15H2.28281V8.9H4.63281V10.01H2.28281V11.86H4.93281V13H0.88281V6.01H4.93281ZM10.33 13V9.94C10.33 9.05 9.83996 8.57 9.09996 8.57C8.33996 8.57 7.84996 9.05 7.84996 9.94V13H6.44996V7.46H7.84996V8.15C8.20996 7.68 8.80996 7.38 9.51996 7.38C10.81 7.38 11.73 8.22 11.73 9.75V13H10.33ZM12.9462 10.21C12.9462 8.48 14.0662 7.37 15.4762 7.37C16.3462 7.37 16.9762 7.77 17.3062 8.25V7.46H18.7162V13.04C18.7162 14.54 17.7962 15.73 15.9762 15.73C14.4162 15.73 13.3262 14.95 13.1862 13.68H14.5762C14.7162 14.18 15.2362 14.51 15.9362 14.51C16.7062 14.51 17.3062 14.07 17.3062 13.04V12.18C16.9762 12.66 16.3462 13.09 15.4762 13.09C14.0662 13.09 12.9462 11.94 12.9462 10.21ZM17.3062 10.23C17.3062 9.18 16.6062 8.6 15.8362 8.6C15.0862 8.6 14.3762 9.16 14.3762 10.21C14.3762 11.26 15.0862 11.86 15.8362 11.86C16.6062 11.86 17.3062 11.28 17.3062 10.23ZM20.3284 13V5.6H21.7284V13H20.3284ZM23.3565 13V7.46H24.7565V13H23.3565ZM24.0665 6.8C23.5665 6.8 23.2065 6.44 23.2065 5.98C23.2065 5.52 23.5665 5.16 24.0665 5.16C24.5565 5.16 24.9265 5.52 24.9265 5.98C24.9265 6.44 24.5565 6.8 24.0665 6.8ZM30.6846 11.42C30.6846 12.37 29.8546 13.09 28.5046 13.09C27.1146 13.09 26.1446 12.28 26.0846 11.25H27.4946C27.5446 11.67 27.9346 11.99 28.4946 11.99C29.0446 11.99 29.3446 11.74 29.3446 11.42C29.3446 10.43 26.2146 11.06 26.2146 9.03C26.2146 8.11 27.0346 7.37 28.4046 7.37C29.7446 7.37 30.5546 8.1 30.6346 9.2H29.2946C29.2546 8.77 28.9146 8.48 28.3646 8.48C27.8446 8.48 27.5746 8.69 27.5746 9.01C27.5746 10.02 30.6446 9.39 30.6846 11.42ZM32.0787 13V5.6H33.4787V8.15C33.8387 7.68 34.4587 7.38 35.1987 7.38C36.4487 7.38 37.3587 8.22 37.3587 9.75V13H35.9587V9.94C35.9587 9.05 35.4687 8.57 34.7287 8.57C33.9687 8.57 33.4787 9.05 33.4787 9.94V13H32.0787Z" fill="white"/>
<path d="M0.19281 14H37.9987V14.5H0.19281V14Z" fill="white"/>
<path d="M76.2175 13L75.7175 11.58H72.8075L72.3075 13H71.1175L73.6075 6.04H74.9275L77.4175 13H76.2175ZM75.3975 10.65L74.2675 7.42L73.1275 10.65H75.3975ZM79.8851 10.1V13H78.7451V7.49H79.8851V8.29C80.2051 7.74 80.7551 7.4 81.5351 7.4V8.58H81.2451C80.4051 8.58 79.8851 8.93 79.8851 10.1ZM82.4479 10.22C82.4479 8.52 83.5979 7.4 85.0479 7.4C85.9779 7.4 86.6179 7.84 86.9579 8.29V7.49H88.1079V13H86.9579V12.18C86.6079 12.65 85.9479 13.09 85.0279 13.09C83.5979 13.09 82.4479 11.92 82.4479 10.22ZM86.9579 10.24C86.9579 9.06 86.1479 8.39 85.2879 8.39C84.4379 8.39 83.6179 9.03 83.6179 10.22C83.6179 11.41 84.4379 12.1 85.2879 12.1C86.1479 12.1 86.9579 11.43 86.9579 10.24ZM90.9901 8.31C91.3501 7.81 92.0401 7.4 92.9101 7.4C94.3701 7.4 95.5001 8.52 95.5001 10.22C95.5001 11.92 94.3601 13.09 92.9101 13.09C92.0001 13.09 91.3501 12.68 90.9901 12.2V13H89.8501V5.6H90.9901V8.31ZM94.3401 10.22C94.3401 9.03 93.5201 8.39 92.6601 8.39C91.8101 8.39 90.9901 9.06 90.9901 10.24C90.9901 11.43 91.8101 12.1 92.6601 12.1C93.5201 12.1 94.3401 11.41 94.3401 10.22ZM96.8723 13V7.49H98.0123V13H96.8723ZM97.4523 6.76C97.0423 6.76 96.7223 6.44 96.7223 6.03C96.7223 5.62 97.0423 5.3 97.4523 5.3C97.8523 5.3 98.1723 5.62 98.1723 6.03C98.1723 6.44 97.8523 6.76 97.4523 6.76ZM99.3739 10.24C99.3739 8.52 100.494 7.4 102.074 7.4C103.424 7.4 104.304 8.07 104.614 9.23H103.384C103.194 8.7 102.754 8.36 102.074 8.36C101.154 8.36 100.544 9.04 100.544 10.24C100.544 11.45 101.154 12.13 102.074 12.13C102.754 12.13 103.174 11.83 103.384 11.26H104.614C104.304 12.34 103.424 13.09 102.074 13.09C100.494 13.09 99.3739 11.97 99.3739 10.24Z" fill="white"/>
<path d="M59.9982 8.00409C59.9982 7.73888 59.8928 7.48452 59.7053 7.29699C59.5178 7.10945 59.2634 7.00409 58.9982 7.00409H47.4082L49.7082 4.71409C49.8965 4.52579 50.0023 4.27039 50.0023 4.00409C50.0023 3.73779 49.8965 3.4824 49.7082 3.29409C49.5199 3.10579 49.2645 3 48.9982 3C48.7319 3 48.4765 3.10579 48.2882 3.29409L44.2882 7.29409C44.1494 7.43472 44.0554 7.61329 44.0181 7.80728C43.9807 8.00127 44.0016 8.20198 44.0782 8.38409C44.1532 8.56671 44.2806 8.72304 44.4443 8.83337C44.608 8.9437 44.8008 9.00311 44.9982 9.00409H58.9982C59.2634 9.00409 59.5178 8.89873 59.7053 8.7112C59.8928 8.52366 59.9982 8.26931 59.9982 8.00409ZM63.9182 11.6241C63.8432 11.4415 63.7158 11.2851 63.552 11.1748C63.3883 11.0645 63.1956 11.0051 62.9982 11.0041H48.9982C48.733 11.0041 48.4786 11.1094 48.2911 11.297C48.1035 11.4845 47.9982 11.7389 47.9982 12.0041C47.9982 12.2693 48.1035 12.5237 48.2911 12.7112C48.4786 12.8987 48.733 13.0041 48.9982 13.0041H60.5882L58.2882 15.2941C58.1945 15.3871 58.1201 15.4977 58.0693 15.6195C58.0185 15.7414 57.9924 15.8721 57.9924 16.0041C57.9924 16.1361 58.0185 16.2668 58.0693 16.3887C58.1201 16.5105 58.1945 16.6211 58.2882 16.7141C58.3812 16.8078 58.4917 16.8822 58.6136 16.933C58.7355 16.9838 58.8662 17.0099 58.9982 17.0099C59.1302 17.0099 59.2609 16.9838 59.3828 16.933C59.5046 16.8822 59.6152 16.8078 59.7082 16.7141L63.7082 12.7141C63.8469 12.5735 63.9409 12.3949 63.9783 12.2009C64.0157 12.0069 63.9948 11.8062 63.9182 11.6241Z" fill="white"/>
</svg>
