<svg width="16" height="14" viewBox="0 0 16 14" fill="none" xmlns="http://www.w3.org/2000/svg">
<path d="M16 4.5219C16 9.62727 8.58643 13.7597 8.27071 13.9304C8.1875 13.9761 8.09449 14 8 14C7.90551 14 7.8125 13.9761 7.72929 13.9304C7.41357 13.7597 0 9.62727 0 4.5219C0.00132338 3.32303 0.468329 2.17365 1.29856 1.32593C2.12879 0.478198 3.25445 0.00135127 4.42857 0C5.90357 0 7.195 0.647653 8 1.74239C8.805 0.647653 10.0964 0 11.5714 0C12.7456 0.00135127 13.8712 0.478198 14.7014 1.32593C15.5317 2.17365 15.9987 3.32303 16 4.5219Z" fill="#FF0000"/>
</svg>
