<svg width="18" height="14" viewBox="0 0 18 14" fill="none" xmlns="http://www.w3.org/2000/svg">
<path d="M17.1 2.47059H0.9C0.661305 2.47059 0.432387 2.34044 0.263604 2.10878C0.0948212 1.87712 0 1.56291 0 1.23529C0 0.907674 0.0948212 0.593472 0.263604 0.361809C0.432387 0.130147 0.661305 0 0.9 0H17.1C17.3387 0 17.5676 0.130147 17.7364 0.361809C17.9052 0.593472 18 0.907674 18 1.23529C18 1.56291 17.9052 1.87712 17.7364 2.10878C17.5676 2.34044 17.3387 2.47059 17.1 2.47059ZM14.1 8.23529H3.9C3.66131 8.23529 3.43239 8.10515 3.2636 7.87348C3.09482 7.64182 3 7.32762 3 7C3 6.67238 3.09482 6.35818 3.2636 6.12651C3.43239 5.89485 3.66131 5.76471 3.9 5.76471H14.1C14.3387 5.76471 14.5676 5.89485 14.7364 6.12651C14.9052 6.35818 15 6.67238 15 7C15 7.32762 14.9052 7.64182 14.7364 7.87348C14.5676 8.10515 14.3387 8.23529 14.1 8.23529ZM10.5 14H7.5C7.26131 14 7.03239 13.8699 6.8636 13.6382C6.69482 13.4065 6.6 13.0923 6.6 12.7647C6.6 12.4371 6.69482 12.1229 6.8636 11.8912C7.03239 11.6596 7.26131 11.5294 7.5 11.5294H10.5C10.7387 11.5294 10.9676 11.6596 11.1364 11.8912C11.3052 12.1229 11.4 12.4371 11.4 12.7647C11.4 13.0923 11.3052 13.4065 11.1364 13.6382C10.9676 13.8699 10.7387 14 10.5 14Z" fill="white"/>
</svg>
