<svg width="26" height="26" viewBox="0 0 26 26" fill="none" xmlns="http://www.w3.org/2000/svg">
<path d="M23.6226 10.8784H22.75V10.8334H13V15.1667H19.1224C18.2292 17.6893 15.8291 19.5001 13 19.5001C9.41033 19.5001 6.49996 16.5897 6.49996 13.0001C6.49996 9.41046 9.41033 6.50008 13 6.50008C14.6569 6.50008 16.1644 7.12516 17.3122 8.14621L20.3764 5.082C18.4415 3.27879 15.8535 2.16675 13 2.16675C7.01725 2.16675 2.16663 7.01737 2.16663 13.0001C2.16663 18.9828 7.01725 23.8334 13 23.8334C18.9827 23.8334 23.8333 18.9828 23.8333 13.0001C23.8333 12.2737 23.7585 11.5647 23.6226 10.8784Z" fill="#FFC107"/>
<path d="M3.41577 7.95771L6.97506 10.568C7.93815 8.18358 10.2706 6.50008 13 6.50008C14.657 6.50008 16.1644 7.12516 17.3122 8.14621L20.3764 5.082C18.4416 3.27879 15.8535 2.16675 13 2.16675C8.83894 2.16675 5.23035 4.51596 3.41577 7.95771Z" fill="#FF3D00"/>
<path d="M13 23.8332C15.7982 23.8332 18.3408 22.7623 20.2632 21.0209L16.9103 18.1836C15.7861 19.0386 14.4123 19.501 13 19.4999C10.1822 19.4999 7.78967 17.7032 6.88834 15.1958L3.35559 17.9177C5.14851 21.426 8.78959 23.8332 13 23.8332Z" fill="#4CAF50"/>
<path d="M23.6226 10.8782H22.75V10.8333H13V15.1666H19.1225C18.6952 16.3671 17.9256 17.4162 16.9087 18.1842L16.9103 18.1831L20.2632 21.0204C20.026 21.236 23.8333 18.4166 23.8333 12.9999C23.8333 12.2735 23.7586 11.5645 23.6226 10.8782Z" fill="#1976D2"/>
</svg>
