<svg width="18" height="18" viewBox="0 0 18 18" fill="none" xmlns="http://www.w3.org/2000/svg">
<path d="M14.7172 14.2422C13.3258 15.6336 11.4775 16.463 9.525 16.5845V15.6825C10.8909 15.5868 12.2045 15.1004 13.3067 14.2763C14.5429 13.352 15.4467 12.0525 15.8832 10.572C16.3197 9.09146 16.2654 7.50947 15.7284 6.06239C15.1914 4.61532 14.2005 3.38087 12.9039 2.54354C11.6072 1.70621 10.0744 1.31095 8.53457 1.41685C6.9947 1.52274 5.53044 2.12409 4.36062 3.13103C3.1908 4.13797 2.37824 5.49643 2.04437 7.00339C1.71049 8.51036 1.87324 10.0849 2.50828 11.4917L2.80595 12.1512L3.31755 11.6396L4.725 10.2321V13.75H1.20711L1.92105 13.0361L2.18701 12.7701L2.00522 12.4408C1.3296 11.2171 0.984258 9.83859 1.0032 8.4409C1.02213 7.0432 1.40469 5.67453 2.11322 4.46958C2.82175 3.26463 3.83182 2.26495 5.04403 1.56891C6.256 0.873011 7.62826 0.504628 9.0258 0.5C11.1605 0.500212 13.2077 1.34831 14.7172 2.85779C16.2269 4.36746 17.075 6.41501 17.075 8.55C17.075 10.685 16.2269 12.7325 14.7172 14.2422Z" fill="white" stroke="white"/>
</svg>
