<svg width="21" height="19" viewBox="0 0 21 19" fill="none" xmlns="http://www.w3.org/2000/svg">
<path d="M16.423 7.83456L20.6448 18.3889H18.5771L17.4247 15.5104H13.5004L12.35 18.3889H10.2833L14.5041 7.83456H16.423ZM8.26742 0.158691V2.07766H14.0243V3.99662H12.1361C11.3959 6.22462 10.2147 8.28073 8.66273 10.0423C9.35481 10.6599 10.1055 11.2084 10.9041 11.6802L10.1835 13.4821C9.15256 12.8974 8.18835 12.2021 7.30794 11.4086C5.5939 12.9599 3.56407 14.1213 1.35818 14.8129L0.843897 12.962C2.73392 12.3594 4.47556 11.3648 5.95506 10.0433C4.86 8.80358 3.94789 7.4136 3.24644 5.91559H5.39569C5.93045 6.90276 6.57169 7.82842 7.30794 8.67602C8.50739 7.29351 9.45267 5.70959 10.1 3.99758L0.591553 3.99662V2.07766H6.34845V0.158691H8.26742ZM15.4635 10.6027L14.2671 13.5915H16.6581L15.4635 10.6027Z" fill="white"/>
</svg>
