<svg width="11" height="12" viewBox="0 0 11 12" fill="none" xmlns="http://www.w3.org/2000/svg">
<path d="M0.126953 6.55809C0.126953 6.41963 0.153661 6.28253 0.205551 6.15461C0.257441 6.02669 0.333497 5.91046 0.429378 5.81256C0.525258 5.71465 0.639084 5.63699 0.764358 5.58401C0.889632 5.53102 1.0239 5.50375 1.15949 5.50375C1.29509 5.50375 1.42936 5.53102 1.55463 5.58401C1.67991 5.63699 1.79373 5.71465 1.88961 5.81256C1.98549 5.91046 2.06155 6.02669 2.11344 6.15461C2.16533 6.28253 2.19204 6.41963 2.19204 6.55809V10.7754C2.19204 11.0551 2.08325 11.3233 1.88961 11.521C1.69597 11.7187 1.43334 11.8298 1.15949 11.8298C0.885648 11.8298 0.623017 11.7187 0.429378 11.521C0.235738 11.3233 0.126953 11.0551 0.126953 10.7754V6.55809ZM2.8804 6.44071V10.2574C2.88028 10.5187 2.95145 10.7748 3.08593 10.997C3.22041 11.2192 3.41287 11.3988 3.64172 11.5156L3.67614 11.5332C4.0581 11.7281 4.47923 11.8297 4.90624 11.8298H8.63441C8.95279 11.8299 9.26138 11.7174 9.50763 11.5113C9.75388 11.3052 9.92257 11.0183 9.98497 10.6995L10.811 6.48218C10.8509 6.27825 10.846 6.06782 10.7967 5.86605C10.7473 5.66428 10.6548 5.47621 10.5257 5.31538C10.3965 5.15456 10.2341 5.02499 10.05 4.93601C9.86591 4.84704 9.66479 4.80088 9.46113 4.80086H7.01056V1.98928C7.01056 1.61644 6.86552 1.25888 6.60733 0.995241C6.34915 0.731605 5.99897 0.583496 5.63384 0.583496C5.45128 0.583496 5.27619 0.657551 5.1471 0.789369C5.018 0.921187 4.94548 1.09997 4.94548 1.28639V1.75522C4.94548 2.36356 4.75225 2.95549 4.39479 3.44216L3.43109 4.75376C3.07363 5.24043 2.8804 5.83237 2.8804 6.44071Z" fill="#252525" fill-opacity="0.5"/>
</svg>
