<svg width="11" height="11" viewBox="0 0 11 11" fill="none" xmlns="http://www.w3.org/2000/svg">
<path d="M3.12844 9.21344V9.21326V5.5783C3.12844 5.08273 3.29365 4.59935 3.60104 4.20075C3.60106 4.20073 3.60107 4.20071 3.60108 4.20069L4.56475 2.9516L4.56479 2.95155C4.97229 2.42317 5.19353 1.77908 5.19353 1.11593V0.669422C5.19353 0.594766 5.22393 0.520979 5.28159 0.464907C5.3396 0.408488 5.42046 0.375 5.50689 0.375C5.77589 0.375 6.03183 0.479017 6.21894 0.660976C6.40569 0.842589 6.50861 1.08665 6.50861 1.33884V4.01653V4.39153H6.88361H9.33414C9.33415 4.39153 9.33416 4.39153 9.33418 4.39153C9.48398 4.39155 9.63159 4.42391 9.76624 4.4859C9.90088 4.54787 10.0188 4.63772 10.112 4.74826C10.2051 4.85876 10.2713 4.98726 10.3065 5.12427C10.3417 5.26125 10.3452 5.40395 10.3167 5.54229L9.49071 9.55878L9.4907 9.55883C9.44627 9.77498 9.32575 9.97166 9.14695 10.1142C8.96794 10.2568 8.74204 10.3358 8.5076 10.3358H8.50745H4.77941C4.77937 10.3358 4.77933 10.3358 4.77929 10.3358C4.40877 10.3356 4.04375 10.2517 3.71317 10.091C3.71315 10.091 3.71314 10.091 3.71312 10.091L3.67875 10.0743L3.67868 10.0742C3.51136 9.99293 3.37213 9.86862 3.27549 9.71652C3.17892 9.56453 3.12836 9.39035 3.12844 9.21344ZM0.375 5.69009C0.375 5.60894 0.391421 5.52834 0.423606 5.45277C0.455801 5.37718 0.503283 5.30781 0.563865 5.2489C0.62447 5.18996 0.696982 5.14267 0.777521 5.11023C0.858076 5.07778 0.944762 5.06096 1.03254 5.06096C1.12032 5.06096 1.20701 5.07778 1.28756 5.11023C1.3681 5.14267 1.44061 5.18996 1.50122 5.2489C1.5618 5.30781 1.60928 5.37718 1.64148 5.45277C1.67366 5.52834 1.69008 5.60894 1.69008 5.69009V9.70662C1.69008 9.87005 1.62342 10.029 1.50122 10.1478C1.37866 10.267 1.21026 10.3358 1.03254 10.3358C0.854828 10.3358 0.686427 10.267 0.563865 10.1478C0.44166 10.029 0.375 9.87005 0.375 9.70662V5.69009Z" stroke="#252525" stroke-opacity="0.5" stroke-width="0.75"/>
</svg>
