<svg width="22" height="21" viewBox="0 0 22 21" fill="none" xmlns="http://www.w3.org/2000/svg">
<path d="M6.44279 2C10.0196 2.00306 9.69062 6.86807 9.68939 8.8142C9.68695 11.2978 10.2965 16.3107 8.38097 18.219C6.42811 20.1633 2.52546 21.1336 0.575665 19.5103C-1.37413 17.8864 1.8902 1.99633 6.44279 2ZM15.5779 2.00734C12.0011 2.00428 12.3221 6.86991 12.3203 8.81604C12.3185 11.3002 11.7003 16.312 13.6134 18.2232C15.5626 20.1712 19.4641 21.147 21.4163 19.5274C23.3685 17.9071 20.1305 2.01101 15.5779 2.00734Z" fill="#4F8EFF"/>
<path fill-rule="evenodd" clip-rule="evenodd" d="M10.4017 0H11.6245L11.6178 8.86182C11.6165 10.1464 11.0436 10.8825 10.3955 11.2604C10.0269 11.4727 9.61241 11.5927 9.18739 11.6101H9.17149V10.3873H9.16537H9.16843C9.22653 10.3838 9.28433 10.3764 9.34146 10.3653C9.46619 10.3408 9.62577 10.2938 9.78046 10.2039C10.0495 10.0474 10.3937 9.71475 10.3949 8.8606L10.4017 0Z" fill="#4F8EFF"/>
<path fill-rule="evenodd" clip-rule="evenodd" d="M11.6245 0H10.4017L10.395 8.8606C10.3938 10.1452 10.9648 10.8825 11.6123 11.2616C11.9806 11.4742 12.3949 11.5947 12.8199 11.6126H12.837L12.8382 11.0012C12.8382 10.3897 12.8394 10.3897 12.8394 10.3897H12.8449H12.8419C12.8364 10.3897 12.826 10.3897 12.8107 10.3879C12.6064 10.3699 12.4084 10.3078 12.2305 10.2057C11.9614 10.0486 11.6172 9.71597 11.6184 8.86182L11.6245 0Z" fill="#4F8EFF"/>
</svg>
