<svg width="12" height="13" viewBox="0 0 12 13" fill="none" xmlns="http://www.w3.org/2000/svg">
<path d="M1.63259 1.63326C2.67787 0.60845 4.09557 0.0327148 5.57381 0.0327148C7.05206 0.0327148 8.46976 0.60845 9.51503 1.63326C10.5603 2.65808 11.1475 4.04803 11.1475 5.49733C11.1475 6.94664 10.5603 8.33659 9.51503 9.3614L8.75521 10.0982C8.1951 10.6367 7.46857 11.3295 6.57496 12.1768C6.30638 12.4314 5.94741 12.5737 5.57381 12.5737C5.20022 12.5737 4.84124 12.4314 4.57266 12.1768L2.338 10.0455C2.05635 9.77498 1.82207 9.54717 1.63259 9.3614C1.115 8.85398 0.704419 8.25157 0.424298 7.58857C0.144177 6.92557 0 6.21496 0 5.49733C0 4.7797 0.144177 4.0691 0.424298 3.4061C0.704419 2.7431 1.115 2.14069 1.63259 1.63326ZM8.83587 2.29851C8.4074 1.87847 7.89875 1.54529 7.33895 1.31799C6.77916 1.09068 6.17917 0.973706 5.57326 0.973735C4.96736 0.973764 4.36739 1.0908 3.80761 1.31816C3.24784 1.54552 2.73922 1.87875 2.3108 2.29882C1.88238 2.7189 1.54254 3.21759 1.3107 3.76643C1.07886 4.31527 0.959542 4.90351 0.959572 5.49755C0.959602 6.0916 1.07897 6.67983 1.31087 7.22864C1.54277 7.77746 1.88265 8.27612 2.31112 8.69616L3.26362 9.61746C3.78724 10.1202 4.44656 10.7477 5.24031 11.5002C5.32981 11.585 5.44938 11.6323 5.57381 11.6323C5.69824 11.6323 5.81781 11.585 5.90731 11.5002L8.08052 9.42918C8.38138 9.13986 8.63295 8.89573 8.83587 8.69616C9.70099 7.84793 10.187 6.69751 10.187 5.49796C10.187 4.29841 9.70099 3.14799 8.83587 2.29976V2.29851ZM5.57381 3.78652C5.82616 3.78652 6.07605 3.83526 6.30919 3.92994C6.54234 4.02462 6.75418 4.16339 6.93262 4.33834C7.11106 4.51329 7.2526 4.72098 7.34918 4.94956C7.44575 5.17814 7.49545 5.42313 7.49545 5.67055C7.49545 5.91796 7.44575 6.16295 7.34918 6.39153C7.2526 6.62011 7.11106 6.82781 6.93262 7.00275C6.75418 7.1777 6.54234 7.31648 6.30919 7.41116C6.07605 7.50584 5.82616 7.55457 5.57381 7.55457C5.07032 7.54556 4.59055 7.34314 4.23773 6.99085C3.88491 6.63857 3.68724 6.16458 3.68724 5.67086C3.68724 5.17714 3.88491 4.70315 4.23773 4.35087C4.59055 3.99858 5.07032 3.79616 5.57381 3.78715V3.78652ZM5.57381 4.72791C5.31882 4.72791 5.07426 4.82722 4.89396 5.004C4.71365 5.18078 4.61235 5.42054 4.61235 5.67055C4.61235 5.92055 4.71365 6.16031 4.89396 6.33709C5.07426 6.51387 5.31882 6.61319 5.57381 6.61319C5.82443 6.60685 6.06261 6.50478 6.23758 6.32875C6.41254 6.15272 6.51047 5.91665 6.51047 5.67086C6.51047 5.42507 6.41254 5.189 6.23758 5.01297C6.06261 4.83694 5.82443 4.73488 5.57381 4.72854V4.72791Z" fill="#252525" fill-opacity="0.5"/>
</svg>
