<svg width="17" height="18" viewBox="0 0 17 18" fill="none" xmlns="http://www.w3.org/2000/svg">
<path d="M4.81641 16.418C5.20804 16.9132 5.70709 17.3129 6.27586 17.587C6.84462 17.8611 7.46824 18.0024 8.0996 18.0002C8.73096 18.0024 9.35458 17.8611 9.92335 17.587C10.4921 17.3129 10.9912 16.9132 11.3828 16.418C9.20396 16.7133 6.99524 16.7133 4.81641 16.418Z" fill="white"/>
<path fill-rule="evenodd" clip-rule="evenodd" d="M14.175 6.93359V6.29999C14.175 2.8206 11.4543 0 8.10004 0C4.74575 0 2.02505 2.8206 2.02505 6.29999V6.93359C2.02505 7.69409 1.80905 8.43749 1.40225 9.07019L0.405055 10.6209C-0.504843 12.0375 0.189955 13.9626 1.77305 14.4099C5.90967 15.5816 10.2904 15.5816 14.427 14.4099C16.0101 13.9626 16.7049 12.0375 15.795 10.6209L14.7978 9.07019C14.3897 8.43239 14.1741 7.69081 14.175 6.93359ZM8.10004 2.925C8.27907 2.925 8.45075 2.99611 8.57734 3.1227C8.70393 3.24929 8.77504 3.42097 8.77504 3.59999V7.19999C8.77504 7.37901 8.70393 7.5507 8.57734 7.67729C8.45075 7.80387 8.27907 7.87499 8.10004 7.87499C7.92102 7.87499 7.74934 7.80387 7.62275 7.67729C7.49616 7.5507 7.42505 7.37901 7.42505 7.19999V3.59999C7.42505 3.42097 7.49616 3.24929 7.62275 3.1227C7.74934 2.99611 7.92102 2.925 8.10004 2.925Z" fill="white"/>
</svg>
