<svg width="21" height="23" viewBox="0 0 21 23" fill="none" xmlns="http://www.w3.org/2000/svg">
<path d="M20.1675 22.9758L17.2265 20.0524C16.9253 20.259 16.6006 20.4179 16.2526 20.5293C15.9047 20.6407 15.5297 20.696 15.1277 20.6952C14.0773 20.6952 13.1872 20.3296 12.4574 19.5984C11.7284 18.8681 11.3639 17.9763 11.3639 16.9232C11.3639 15.87 11.7284 14.9786 12.4574 14.2491C13.1872 13.5179 14.0773 13.1524 15.1277 13.1524C16.1781 13.1524 17.0682 13.5179 17.798 14.2491C18.527 14.9803 18.8915 15.872 18.8915 16.9244C18.8915 17.3569 18.8199 17.7685 18.6765 18.1591C18.5315 18.5497 18.3329 18.9032 18.0808 19.2195L21 22.1429L20.1675 22.977V22.9758ZM15.1277 19.4858C15.8229 19.4858 16.423 19.2332 16.9281 18.7281C17.4315 18.2229 17.6833 17.6216 17.6833 16.9244C17.6833 16.2279 17.4311 15.6271 16.9269 15.1219C16.4226 14.6167 15.8229 14.3641 15.1277 14.3641C14.4326 14.3641 13.8325 14.6167 13.3274 15.1219C12.8239 15.6271 12.5722 16.2283 12.5722 16.9256C12.5722 17.622 12.8243 18.2233 13.3286 18.7293C13.8329 19.2336 14.4326 19.4858 15.1277 19.4858ZM0 23V16.3421C0 15.5044 0.294821 14.7902 0.884465 14.1995C1.4725 13.6104 2.18498 13.3158 3.02192 13.3158H5.43849C6.61536 13.3158 7.61421 12.9042 8.43504 12.0811C9.25667 11.2595 9.66749 10.2588 9.66749 9.07895C9.66749 8.58102 9.48947 8.1537 9.13343 7.797C8.779 7.44111 8.35288 7.26316 7.85506 7.26316C7.34517 7.26316 6.91542 7.08804 6.56582 6.73779C6.21703 6.38835 6.04263 5.95821 6.04263 5.44737V0H10.8987V1.28074L12.0369 2.42105C14.1297 2.42105 15.8728 3.1966 17.2664 4.74768C18.66 6.29877 19.3567 8.14604 19.3567 10.2895V11.7869C18.7542 11.2946 18.0981 10.9181 17.3884 10.6575C16.6796 10.3968 15.926 10.2665 15.1277 10.2665C13.2847 10.2665 11.7163 10.9145 10.4227 12.2106C9.129 13.5058 8.48216 15.0767 8.48216 16.9232C8.48216 17.3 8.52123 17.7136 8.59937 18.1639C8.6775 18.6135 8.79471 19.0145 8.95098 19.3672H6.66974C6.17273 19.3672 5.7462 19.5452 5.39016 19.9011C5.03492 20.2586 4.85731 20.6863 4.85731 21.1842V23H0Z" fill="#4F8EFF"/>
</svg>
