<svg width="20" height="20" viewBox="0 0 20 20" fill="none" xmlns="http://www.w3.org/2000/svg">
<path d="M4.90647 0.000422735C4.88431 -0.000136247 4.86214 -5.15567e-05 4.83999 0.000676654C4.80155 0.00186151 4.77666 0.00380808 4.75305 0.0049083C4.72918 0.00376576 4.70446 0.00186151 4.66598 0.000676654C4.60376 -0.00144582 4.54148 0.00142689 4.47973 0.00926683H4.47918L4.47867 0.00939379C3.03475 0.19567 1.9663 1.57298 1.9663 3.31768C1.9663 4.0743 2.15936 4.83049 2.50397 5.43934C2.03517 5.6257 1.6418 5.92098 1.33196 6.29019C0.905945 6.79786 0.625344 7.43337 0.431727 8.13078C0.0445365 9.52565 0 11.1866 0 12.6842V13.0796H1.7919L2.23995 19.9994H4.57609V20H15.4816V19.9994H17.7599L18.208 13.0797H20V12.6842C20 11.1867 19.9553 9.52574 19.5681 8.13082C19.3745 7.43345 19.094 6.79786 18.668 6.29023C18.3581 5.92102 17.9648 5.62574 17.4959 5.43942C17.8405 4.83066 18.0337 4.07443 18.0337 3.31781C18.0337 1.57311 16.9652 0.195797 15.5213 0.00952075L15.5207 0.00943608H15.5202C15.5068 0.00774343 15.4942 0.00660092 15.4816 0.00541606V0.00511985H15.4788C15.4306 0.000725536 15.3822 -0.000715922 15.3339 0.000803614C15.2958 0.00198847 15.2715 0.00376574 15.2477 0.00495059C15.2243 0.00385037 15.1997 0.00198847 15.1615 0.000803614C15.1132 -0.000714312 15.0648 0.000727144 15.0166 0.00511985H4.98489C4.95881 0.00273346 4.93266 0.00120924 4.90647 0.000549694V0.000422735ZM4.75305 0.79652C4.7631 0.796604 4.76796 0.796943 4.77883 0.796943C4.8272 0.796943 4.87583 0.800116 4.92442 0.805279H15.0755C15.1241 0.800116 15.1727 0.796943 15.2211 0.796943C15.2325 0.796943 15.2375 0.796604 15.2478 0.79652C15.2582 0.796604 15.2632 0.796943 15.2745 0.796943C15.502 0.796943 15.7342 0.855593 15.9511 0.957025L15.9542 0.950551C16.6932 1.29797 17.2373 2.15212 17.2373 3.31773C17.2373 4.10752 16.9445 4.95003 16.5575 5.41302L16.1252 5.93L16.7903 6.05415C17.3362 6.15601 17.7309 6.40889 18.0561 6.79638C18.3813 7.18387 18.6266 7.71507 18.8003 8.34093C19.1173 9.48279 19.188 10.9209 19.1986 12.2887H17.461L17.0131 19.2085H13.4824L13.4823 19.2079H6.51916V19.2085H2.98693L2.53888 12.2888H0.801444C0.811971 10.921 0.882633 9.48279 1.19963 8.34097C1.37334 7.71511 1.6187 7.18391 1.94388 6.79642C2.26906 6.40893 2.66371 6.15605 3.20965 6.05419L3.87476 5.93L3.44252 5.41302C3.05542 4.95008 2.76275 4.10756 2.76275 3.31773C2.76275 2.15136 3.30755 1.29699 4.04728 0.950001L4.05056 0.957025C4.26749 0.855593 4.49964 0.796943 4.72713 0.796943C4.73813 0.796943 4.7429 0.796604 4.75305 0.79652ZM6.22923 1.59617C6.39693 1.8251 6.53105 2.0972 6.62004 2.40636H13.3815C13.4706 2.09715 13.6046 1.82514 13.7723 1.59621L6.22923 1.59617ZM6.74121 3.19729C6.74249 3.23707 6.74334 3.27719 6.74334 3.31773C6.74334 3.54674 6.71802 3.78007 6.67361 4.00748H13.3279C13.2836 3.78007 13.2583 3.54674 13.2583 3.31773C13.2583 3.27719 13.2591 3.23707 13.2604 3.19729H6.74121ZM6.42941 4.79837C6.32491 5.03776 6.20029 5.24938 6.06348 5.41302L5.90008 5.60852H14.1014L13.9381 5.41302C13.8013 5.24938 13.6767 5.03776 13.5722 4.79837H6.42945H6.42941ZM7.13586 6.39945C7.29227 6.5099 7.43282 6.64235 7.56213 6.79638C7.66582 6.91994 7.76133 7.05832 7.84904 7.20956H12.1525C12.2403 7.05832 12.3358 6.91994 12.4394 6.79638C12.5688 6.64235 12.7092 6.5099 12.8656 6.39945H7.13586ZM8.20149 8.00049C8.239 8.11051 8.27394 8.22405 8.30633 8.34093C8.34844 8.49242 8.3859 8.64941 8.4197 8.81051H11.5818C11.6147 8.65284 11.6525 8.49623 11.6952 8.34093C11.7269 8.22649 11.7619 8.11296 11.8 8.00049H8.20149ZM8.55203 9.60149C8.58655 9.86554 8.6137 10.1364 8.6348 10.4115H11.3667C11.3878 10.1365 11.415 9.86554 11.4495 9.60144H8.55207L8.55203 9.60149ZM8.68014 11.2025C8.69093 11.4727 8.69689 11.7432 8.70073 12.0126H11.3008C11.3046 11.7432 11.3106 11.4727 11.3213 11.2025H8.68006L8.68014 11.2025ZM6.93384 12.8036L6.88129 13.6138H13.1202L13.0678 12.8037H6.93384V12.8036ZM6.83011 14.4048L6.77769 15.2149H13.2239L13.1715 14.4048H6.83007L6.83011 14.4048ZM6.72655 16.0058L6.67404 16.8159H13.3275L13.2751 16.0058H6.72655ZM6.62285 17.6068L6.57043 18.4169H13.4312L13.3788 17.6069H6.62285V17.6068Z" fill="#4F8EFF"/>
</svg>
