<svg width="10" height="20" viewBox="0 0 10 20" fill="none" xmlns="http://www.w3.org/2000/svg">
<path d="M1.69779e-06 5V3H4V0H6V3H10V5H1.69779e-06ZM2 20C1.45 20 0.979001 19.804 0.587001 19.412C0.195002 19.02 -0.000664969 18.5493 1.69779e-06 18V16H5V14H1.69779e-06V12H5V10H1.69779e-06V9C1.69779e-06 8.16667 0.291668 7.45833 0.875002 6.875C1.45833 6.29167 2.16667 6 3 6H7C7.83333 6 8.54167 6.29167 9.125 6.875C9.70833 7.45833 10 8.16667 10 9V18C10 18.55 9.804 19.021 9.412 19.413C9.02 19.805 8.54933 20.0007 8 20H2Z" fill="#4F8EFF"/>
</svg>
