<svg width="19" height="22" viewBox="0 0 19 22" fill="none" xmlns="http://www.w3.org/2000/svg">
<path d="M3.75687 7.67586V6.71637C3.75687 5.18955 4.3634 3.72526 5.44302 2.64563C6.52265 1.566 7.98694 0.959473 9.51377 0.959473C11.0406 0.959473 12.5049 1.566 13.5845 2.64563C14.6641 3.72526 15.2707 5.18955 15.2707 6.71637V7.67586H17.1896C17.4441 7.67586 17.6882 7.77694 17.8681 7.95688C18.048 8.13682 18.1491 8.38087 18.1491 8.63534V20.1491C18.1491 20.4036 18.048 20.6477 17.8681 20.8276C17.6882 21.0075 17.4441 21.1086 17.1896 21.1086H1.8379C1.58343 21.1086 1.33938 21.0075 1.15944 20.8276C0.979506 20.6477 0.878418 20.4036 0.878418 20.1491V8.63534C0.878418 8.38087 0.979506 8.13682 1.15944 7.95688C1.33938 7.77694 1.58343 7.67586 1.8379 7.67586H3.75687ZM16.2302 9.59482H2.79738V19.1897H16.2302V9.59482ZM8.55428 15.0946C8.18845 14.8834 7.90253 14.5573 7.74087 14.1671C7.57922 13.7768 7.55086 13.3441 7.66019 12.936C7.76952 12.528 8.01044 12.1674 8.34557 11.9103C8.68071 11.6531 9.09134 11.5137 9.51377 11.5137C9.9362 11.5137 10.3468 11.6531 10.682 11.9103C11.0171 12.1674 11.258 12.528 11.3673 12.936C11.4767 13.3441 11.4483 13.7768 11.2867 14.1671C11.125 14.5573 10.8391 14.8834 10.4733 15.0946V17.2707H8.55428V15.0946ZM5.67583 7.67586H13.3517V6.71637C13.3517 5.69849 12.9473 4.7223 12.2276 4.00254C11.5078 3.28279 10.5317 2.87844 9.51377 2.87844C8.49588 2.87844 7.51969 3.28279 6.79994 4.00254C6.08019 4.7223 5.67583 5.69849 5.67583 6.71637V7.67586Z" fill="white"/>
</svg>
