<svg width="19" height="20" viewBox="0 0 19 20" fill="none" xmlns="http://www.w3.org/2000/svg">
<path d="M8.85381 20V10.0798C7.66333 10.0798 6.52611 9.85953 5.44216 9.41908C4.35736 8.97863 3.39644 8.34391 2.55938 7.51492C1.72232 6.68593 1.08649 5.72924 0.651892 4.64485C0.217297 3.5613 0 2.4317 0 1.25604V0H1.26827C2.43255 0 3.55962 0.224832 4.64949 0.674496C5.7402 1.125 6.70113 1.76307 7.53227 2.58871C8.20361 3.25441 8.7477 4.01055 9.16454 4.85713C9.58138 5.70454 9.85744 6.6001 9.99272 7.5438C10.1796 7.18793 10.3893 6.85298 10.6218 6.53897C10.8543 6.22663 11.1177 5.92476 11.4119 5.63336C12.2473 4.80688 13.2124 4.16839 14.3074 3.71789C15.4023 3.26823 16.5438 3.0434 17.7317 3.0434H19V4.29944C19 5.47594 18.7726 6.6068 18.3177 7.69202C17.8628 8.77724 17.2177 9.73351 16.3823 10.5608C15.5469 11.3881 14.5923 12.017 13.5185 12.4474C12.4447 12.877 11.3126 13.0918 10.1221 13.0918V20H8.85381Z" fill="#4F8EFF"/>
</svg>
