<svg width="20" height="20" viewBox="0 0 20 20" fill="none" xmlns="http://www.w3.org/2000/svg">
<path d="M17.7778 0H2.22222C0.988889 0 0 0.988889 0 2.22222V17.7778C0 19.0111 0.988889 20 2.22222 20H17.7778C19.0111 20 20 19.0111 20 17.7778V2.22222C20 0.988889 19.0111 0 17.7778 0ZM15.6667 11.1111H11.1111V12.2222H15.5556C15.5556 12.2222 15.4889 15.5556 13.8889 15.5556C12.3889 15.5556 12.7778 13.8556 11.1111 13.3333V15.5556C11.1111 16.1667 10.6111 16.6667 10 16.6667C9.38889 16.6667 8.88889 16.1667 8.88889 15.5556V13.3333C7.22222 13.8556 7.61111 15.5556 6.11111 15.5556C4.51111 15.5556 4.44444 12.2222 4.44444 12.2222H8.88889V11.1111H4.33333C4.27778 10.7667 4.26667 10.3889 4.22222 10H8.88889V8.88889H4.23333C4.25556 8.52222 4.34444 8.14444 4.44444 7.77778H8.88889V6.66667H4.82222C5 6.27778 5.16667 5.9 5.36667 5.55556H8.88889V4.44444C8.88889 3.83333 9.38889 3.33333 10 3.33333C10.6111 3.33333 11.1111 3.83333 11.1111 4.44444V5.55556H14.6333C14.8333 5.9 15 6.27778 15.1778 6.66667H11.1111V7.77778H15.5556C15.6667 8.14444 15.7444 8.52222 15.7667 8.88889H11.1111V10H15.7778C15.7333 10.3889 15.7222 10.7667 15.6667 11.1111Z" fill="#4F8EFF"/>
</svg>
