<svg width="24" height="24" viewBox="0 0 24 24" fill="none" xmlns="http://www.w3.org/2000/svg">
<g clip-path="url(#clip0_217_1509)">
<path d="M19.8623 16.3112H21.7812V18.2302H2.59155V16.3112H4.51052V9.59481C4.51052 7.55905 5.31922 5.60666 6.75873 4.16715C8.19823 2.72765 10.1506 1.91895 12.1864 1.91895C14.2222 1.91895 16.1745 2.72765 17.614 4.16715C19.0535 5.60666 19.8623 7.55905 19.8623 9.59481V16.3112ZM17.9433 16.3112V9.59481C17.9433 8.06799 17.3368 6.6037 16.2571 5.52407C15.1775 4.44444 13.7132 3.83791 12.1864 3.83791C10.6596 3.83791 9.19527 4.44444 8.11564 5.52407C7.03601 6.6037 6.42949 8.06799 6.42949 9.59481V16.3112H17.9433ZM9.30794 20.1491H15.0648V22.0681H9.30794V20.1491Z" fill="white"/>
</g>
<defs>
<clipPath id="clip0_217_1509">
<rect width="23.0276" height="23.0276" fill="white" transform="translate(0.672485)"/>
</clipPath>
</defs>
</svg>
