<svg width="17" height="17" viewBox="0 0 17 17" fill="none" xmlns="http://www.w3.org/2000/svg">
<path d="M12.9918 1.73891L12.9923 1.73916C13.4036 1.98829 13.5787 2.58529 13.3155 3.07389C12.8601 3.91617 12.738 4.83958 13.1547 5.60285C13.5798 6.38139 14.4285 6.74653 15.3773 6.74653C15.8105 6.74653 16.2433 7.13982 16.25 7.71139V9.29247C16.25 9.86293 15.8171 10.2535 15.3858 10.2535C14.4374 10.2535 13.5877 10.6184 13.1637 11.3983C12.7477 12.1634 12.874 13.0878 13.3345 13.9298L13.9925 13.57L13.334 13.9289C13.5941 14.4062 13.4214 15.0112 13.0092 15.2608L13.0088 15.2611L11.5391 16.1526L11.539 16.1525L11.528 16.1595C11.2536 16.3325 10.856 16.2587 10.6468 15.8896L10.5558 15.7229L10.5556 15.7226C10.0995 14.8885 9.38614 14.2721 8.49681 14.2721C7.60673 14.2721 6.89553 14.8893 6.44354 15.7242C6.44328 15.7247 6.44301 15.7252 6.44274 15.7257L6.35318 15.8896C6.14398 16.2587 5.74642 16.3325 5.47202 16.1595L5.47208 16.1594L5.46093 16.1526L3.99117 15.2611L3.99076 15.2608C3.57983 15.0119 3.40464 14.4158 3.6668 13.9275C4.12618 13.0861 4.25189 12.1627 3.83633 11.3983C3.41232 10.6184 2.56256 10.2535 1.61419 10.2535C1.17939 10.2535 0.75 9.85919 0.75 9.29247V7.70753C0.75 7.13707 1.18292 6.74653 1.61419 6.74653C2.56242 6.74653 3.41182 6.38175 3.83596 5.60349C4.25195 4.84018 4.12643 3.91855 3.66642 3.0808C3.40397 2.59101 3.58149 1.98705 3.99076 1.73916L3.99117 1.73891L5.46093 0.847384L5.46099 0.847481L5.47202 0.840524C5.75146 0.664304 6.14115 0.747529 6.33136 1.10148L6.33134 1.10148L6.33379 1.10596L6.42724 1.27706L6.42741 1.27738C6.88355 2.11154 7.59687 2.72792 8.48619 2.72792C9.37626 2.72792 10.0875 2.11076 10.5394 1.27583C10.5397 1.27533 10.54 1.27483 10.5403 1.27433L10.6299 1.11031C10.8391 0.741264 11.2366 0.667491 11.511 0.840524L11.5109 0.84062L11.5221 0.847384L12.9918 1.73891ZM4.98463 8.5C4.98463 10.4844 6.52024 12.1767 8.49575 12.1767C10.4713 12.1767 12.0069 10.4844 12.0069 8.5C12.0069 6.5156 10.4713 4.82328 8.49575 4.82328C6.52024 4.82328 4.98463 6.5156 4.98463 8.5Z" stroke="white" stroke-width="1.5"/>
</svg>
