<svg width="10" height="11" viewBox="0 0 10 11" fill="none" xmlns="http://www.w3.org/2000/svg">
<path d="M3.54521 2.67199C4.17315 1.54594 4.48687 0.98291 4.95621 0.98291C5.42555 0.98291 5.73927 1.54594 6.36721 2.67199L6.52977 2.96342C6.70819 3.28359 6.7974 3.44368 6.93617 3.54924C7.07494 3.65481 7.2484 3.69397 7.59533 3.77227L7.91054 3.84364C9.12974 4.11971 9.73884 4.25749 9.88405 4.72387C10.0288 5.18975 9.61345 5.67596 8.78231 6.64788L8.56722 6.89916C8.33131 7.17522 8.21286 7.3135 8.15983 7.48399C8.1068 7.65498 8.12464 7.83935 8.16033 8.2076L8.19304 8.54314C8.31842 9.84018 8.38137 10.4885 8.00173 10.7764C7.62209 11.0649 7.05115 10.8017 5.91026 10.2763L5.61438 10.1405C5.29025 9.99085 5.12819 9.91651 4.95621 9.91651C4.78423 9.91651 4.62217 9.99085 4.29754 10.1405L4.00266 10.2763C2.86127 10.8017 2.29033 11.0644 1.91119 10.7769C1.53105 10.4885 1.594 9.84018 1.71939 8.54314L1.7521 8.2081C1.78778 7.83935 1.80562 7.65498 1.7521 7.48449C1.69956 7.3135 1.58111 7.17522 1.3452 6.89965L1.13011 6.64788C0.298969 5.67646 -0.116352 5.19025 0.0283662 4.72387C0.17358 4.25749 0.783179 4.11921 2.00238 3.84364L2.31759 3.77227C2.66402 3.69397 2.83698 3.65481 2.97625 3.54924C3.11502 3.44368 3.20423 3.28359 3.38265 2.96342L3.54521 2.67199Z" fill="#FFD233"/>
</svg>
