<svg width="17" height="16" viewBox="0 0 17 16" fill="none" xmlns="http://www.w3.org/2000/svg">
<path d="M13.0171 15.9999C12.7904 15.9997 12.5689 15.9327 12.381 15.8075L8.55387 13.2757C8.53501 13.2629 8.51265 13.256 8.48974 13.256C8.46683 13.256 8.44446 13.2629 8.42561 13.2757L4.59853 15.8075C4.40635 15.9342 4.17968 16.0001 3.94863 15.9966C3.71757 15.9931 3.49306 15.9204 3.30491 15.7879C3.11676 15.6555 2.97387 15.4697 2.89521 15.2553C2.81656 15.0408 2.80586 14.8078 2.86454 14.5872L4.12143 10.2122C4.12737 10.1902 4.12665 10.167 4.11935 10.1454C4.11206 10.1238 4.09851 10.1047 4.08038 10.0907L0.458505 7.28034C0.267837 7.14014 0.126404 6.94456 0.0540367 6.72101C-0.0183306 6.49747 -0.0180032 6.25718 0.0549731 6.03383C0.127949 5.81048 0.269915 5.61527 0.460964 5.47558C0.652013 5.33589 0.882565 5.25871 1.12029 5.25488L5.73742 5.08272C5.76012 5.08117 5.78188 5.07318 5.80009 5.0597C5.81829 5.04622 5.83216 5.02784 5.84002 5.00676L7.43037 0.738104C7.51053 0.521703 7.65613 0.334844 7.84744 0.202823C8.03876 0.0708032 8.26656 0 8.5 0C8.73344 0 8.96124 0.0708032 9.15256 0.202823C9.34387 0.334844 9.48947 0.521703 9.56963 0.738104L11.16 5.00676C11.1678 5.02784 11.1817 5.04622 11.1999 5.0597C11.2181 5.07318 11.2399 5.08117 11.2626 5.08272L15.8797 5.25488C16.1174 5.25871 16.348 5.33589 16.539 5.47558C16.7301 5.61527 16.8721 5.81048 16.945 6.03383C17.018 6.25718 17.0183 6.49747 16.946 6.72101C16.8736 6.94456 16.7322 7.14014 16.5415 7.28034L12.9196 10.0907C12.9009 10.1043 12.887 10.1233 12.8796 10.145C12.8723 10.1668 12.8719 10.1902 12.8786 10.2122L14.1355 14.5872C14.1796 14.755 14.184 14.9306 14.1482 15.1003C14.1125 15.2701 14.0377 15.4294 13.9296 15.566C13.8214 15.7027 13.6829 15.8129 13.5246 15.8881C13.3664 15.9633 13.1927 16.0016 13.0171 15.9999ZM8.49231 12.2427C8.71948 12.2496 8.93933 12.3237 9.12331 12.4554L12.9504 14.9872C12.9698 15.0018 12.9934 15.0097 13.0178 15.0099C13.0422 15.0101 13.0659 15.0025 13.0856 14.9883C13.1052 14.974 13.1196 14.9539 13.1267 14.9309C13.1338 14.9079 13.1331 14.8832 13.1248 14.8606L11.8679 10.4856C11.8061 10.271 11.8107 10.043 11.881 9.83101C11.9514 9.61897 12.0844 9.43255 12.263 9.29567L15.8848 6.48535C15.9046 6.47165 15.9194 6.45206 15.927 6.42945C15.9347 6.40685 15.9348 6.38242 15.9273 6.35975C15.9198 6.33709 15.9052 6.31739 15.8856 6.30353C15.8659 6.28968 15.8423 6.28242 15.8181 6.2828L11.201 6.11064C10.9749 6.10194 10.7566 6.02698 10.5739 5.89531C10.3911 5.76364 10.2523 5.58123 10.175 5.37134L8.58465 1.10269C8.57748 1.08002 8.56316 1.06021 8.54378 1.04614C8.5244 1.03208 8.50097 1.02449 8.47691 1.02449C8.45286 1.02449 8.42943 1.03208 8.41005 1.04614C8.39067 1.06021 8.37635 1.08002 8.36918 1.10269L6.79423 5.36628C6.71695 5.57616 6.57808 5.75857 6.39534 5.89024C6.2126 6.02191 5.99428 6.09688 5.7682 6.10557L1.15107 6.27774C1.12693 6.27735 1.1033 6.28462 1.08366 6.29847C1.06401 6.31232 1.04938 6.33203 1.04192 6.35469C1.03445 6.37736 1.03455 6.40178 1.04219 6.42439C1.04984 6.447 1.06462 6.46659 1.08438 6.48028L4.71139 9.29567C4.88938 9.43299 5.02197 9.61944 5.09231 9.83134C5.16265 10.0432 5.16756 10.271 5.10641 10.4856L3.85466 14.8606C3.84719 14.8825 3.84715 14.9062 3.85456 14.9282C3.86196 14.9501 3.87641 14.9691 3.8957 14.9822C3.91428 14.9978 3.93793 15.0065 3.96239 15.0065C3.98685 15.0065 4.0105 14.9978 4.02908 14.9822L7.85617 12.4503C8.0432 12.3279 8.26273 12.2627 8.48718 12.263L8.49231 12.2427Z" fill="white"/>
</svg>
