<svg width="19" height="19" viewBox="0 0 19 19" fill="none" xmlns="http://www.w3.org/2000/svg">
<path d="M0.72181 0.688181C0.713863 0.673627 0.708837 0.65762 0.707022 0.641085C0.705206 0.624549 0.706637 0.607813 0.711232 0.591842C0.715827 0.575871 0.723495 0.560981 0.733793 0.548033C0.744091 0.535085 0.756815 0.524335 0.77123 0.516403L1.67727 0.0156169C1.69163 0.00758537 1.70741 0.0025261 1.72371 0.000732548C1.74001 -0.001061 1.7565 0.000446843 1.77223 0.00516868C1.78795 0.00989051 1.80259 0.0177324 1.8153 0.0282393C1.82801 0.0387463 1.83854 0.0517093 1.84627 0.0663765L2.2096 0.738941C3.58331 0.321103 5.10527 0.915361 5.82003 2.24347L4.06439 3.21595C4.20384 3.47538 4.23599 3.78039 4.15378 4.06388C4.07157 4.34737 3.88172 4.58611 3.62601 4.72759C3.37031 4.86907 3.06968 4.90169 2.79026 4.81828C2.51084 4.73487 2.27553 4.54226 2.13608 4.28282L0.379834 5.25406C-0.33554 3.92658 -0.00698693 2.30661 1.08453 1.36105L0.72181 0.688181ZM13.0912 12.803H19V19H13.0912V12.803ZM12.414 15.9003H7.64187C7.24194 15.9002 6.85839 15.739 6.57548 15.4522C6.29257 15.1654 6.13343 14.7764 6.13303 14.3707C6.13327 13.9649 6.29236 13.5758 6.57532 13.289C6.85827 13.0022 7.24192 12.8412 7.64187 12.8414H12.414V15.9003ZM2.1251 17.1411C2.1251 16.7991 2.39813 16.5214 2.73553 16.5214H12.4137V18.9994H2.1251V17.1408V17.1411ZM5.79502 14.0537C5.79453 14.5438 5.60225 15.0136 5.26044 15.3599C4.91864 15.7061 4.45529 15.9005 3.97226 15.9003C3.73305 15.9005 3.49615 15.8529 3.27507 15.7602C3.054 15.6675 2.85308 15.5315 2.6838 15.3601C2.51451 15.1886 2.38017 14.985 2.28844 14.7608C2.19672 14.5367 2.1494 14.2964 2.1492 14.0537C2.1492 13.0345 2.96525 12.2081 3.97226 12.2081C4.97867 12.2081 5.79502 13.0345 5.79502 14.0537ZM15.7584 8.88275L14.7331 5.92106C14.5342 5.3627 14.1522 4.92691 13.0741 4.92691H8.34077C7.26298 4.92691 6.88043 5.3627 6.68245 5.92106L5.65743 8.88275C5.58086 9.07403 5.5412 9.50394 5.95823 9.79178L8.36853 11.4031C8.53756 11.5162 8.74387 11.5566 8.94224 11.5156C9.14062 11.4746 9.31487 11.3554 9.4268 11.1843C9.482 11.0993 9.52017 11.0041 9.53912 10.9042C9.55806 10.8043 9.55742 10.7015 9.53722 10.6019C9.51702 10.5022 9.47766 10.4075 9.4214 10.3233C9.36513 10.239 9.29305 10.1669 9.20929 10.1109L7.29624 8.83168L7.83467 7.32468H8.57994L8.1434 8.54725L9.5958 9.51849C9.75658 9.6253 9.89484 9.76346 10.0026 9.92492C10.1103 10.0864 10.1853 10.268 10.2233 10.4591C10.2628 10.6501 10.2644 10.8472 10.2282 11.0389C10.1919 11.2306 10.1185 11.4131 10.0122 11.5758C9.92698 11.7048 9.82241 11.8194 9.70227 11.9156H11.7133C11.5933 11.8191 11.4887 11.7045 11.403 11.5758C11.2967 11.4131 11.2233 11.2306 11.187 11.0389C11.1506 10.8473 11.1521 10.6502 11.1913 10.4591C11.2295 10.268 11.3047 10.0865 11.4125 9.92507C11.5202 9.76363 11.6584 9.62544 11.8191 9.51849L13.2724 8.54725L12.8341 7.32468H13.5799L14.1196 8.83168L12.2056 10.1109C11.8539 10.3461 11.7557 10.828 11.9884 11.1843C12.2212 11.5405 12.6953 11.6389 13.047 11.4031L15.457 9.79178C15.8743 9.50363 15.8347 9.07403 15.7584 8.88275ZM11.1785 2.02836C11.1209 2.15519 11.0287 2.26263 10.9127 2.33794C10.7968 2.41326 10.6621 2.45329 10.5244 2.45331C10.3866 2.45336 10.2516 2.41337 10.1354 2.33807C10.0192 2.26276 9.92673 2.15529 9.86884 2.02836H8.54852C8.52717 2.14597 8.51466 2.26637 8.51466 2.39048C8.51506 2.93281 8.72775 3.45276 9.10595 3.83601C9.48415 4.21926 9.9969 4.43442 10.5314 4.43417C10.7961 4.43438 11.0583 4.38168 11.3029 4.27908C11.5476 4.17648 11.7699 4.02599 11.9572 3.83621C12.1445 3.64644 12.2931 3.42108 12.3946 3.17302C12.4961 2.92496 12.5484 2.65905 12.5485 2.39048C12.5485 2.26606 12.5354 2.14597 12.515 2.02836H11.1788H11.1785ZM9.8243 1.54583C9.86367 1.3877 9.9539 1.24742 10.0807 1.14718C10.2075 1.04695 10.3637 0.992489 10.5244 0.992429C10.8618 0.992429 11.1464 1.22889 11.2233 1.54583H12.3673C12.2072 1.18818 11.9489 0.884865 11.6234 0.672131C11.2979 0.459397 10.9189 0.346237 10.5317 0.346173C10.1446 0.346314 9.76562 0.459504 9.44013 0.672229C9.11465 0.884954 8.85638 1.18823 8.69617 1.54583H9.8243Z" fill="#4F8EFF"/>
</svg>
