<svg width="171" height="151" viewBox="0 0 171 151" fill="none" xmlns="http://www.w3.org/2000/svg">
<circle cx="86" cy="74" r="60" fill="#4F8EFF"/>
<circle cx="23" cy="10" r="8" fill="#4F8EFF"/>
<circle cx="154" cy="26" r="8" fill="#4F8EFF"/>
<circle cx="5" cy="123" r="5" fill="#4F8EFF"/>
<circle cx="107" cy="3" r="3" fill="#4F8EFF"/>
<circle cx="168" cy="77" r="3" fill="#4F8EFF"/>
<circle cx="151" cy="137" r="3" fill="#4F8EFF"/>
<circle cx="40" cy="137" r="3" fill="#4F8EFF"/>
<circle cx="5.5" cy="56.5" r="1.5" fill="#4F8EFF"/>
<circle cx="105.5" cy="149.5" r="1.5" fill="#4F8EFF"/>
<path d="M115 74.4869L108.567 67.1816L109.464 57.5112L99.9464 55.3564L94.9636 47L86 50.8366L77.0364 47L72.0536 55.3564L62.5364 57.485L63.4327 67.1553L57 74.4869L63.4327 81.7922L62.5364 91.4888L72.0536 93.6436L77.0364 102L86 98.1371L94.9636 101.974L99.9464 93.6173L109.464 91.4625L108.567 81.7922L115 74.4869ZM80.7273 87.6259L70.1818 77.1147L73.8991 73.4095L80.7273 80.1892L98.1009 62.872L101.818 66.6034L80.7273 87.6259Z" fill="white"/>
</svg>
